<?xml version="1.0" encoding="utf-8"?>
<!-- Generator: Adobe Illustrator 27.0.0, SVG Export Plug-In . SVG Version: 6.00 Build 0)  -->
<svg version="1.1" id="图层_1" xmlns="http://www.w3.org/2000/svg" xmlns:xlink="http://www.w3.org/1999/xlink" x="0px" y="0px"
	 viewBox="0 0 595.28 841.89" style="enable-background:new 0 0 595.28 841.89;" xml:space="preserve">
<style type="text/css">
	.st0{fill:#F0ECEC;}
	.st1{fill:#B1AFA0;}
</style>
<g>
	<g>
		<g>
			<path class="st0" d="M408.2,334.78L216.41,381.6c10.73,56.38,67.49,92.16,121.75,78.34C391.71,446.31,424.44,389.04,408.2,334.78
				z"/>
		</g>
	</g>
</g>
<path class="st1" d="M372.98,289.49c-28.87,4.77-60.41,12.59-92.14,23.31c-22.2,7.51-42.59,15.8-60.6,24.44 M220.24,337.24
	c-61.56,29.53-95.42,63.17-79.34,83.73c20.79,26.57,117.14,21.23,215.22-11.94s160.73-81.6,139.94-108.17
	c-14.06-17.98-62.71-21.35-123.08-11.38 M326.14,386.87c-52.38,13.91-101.15,12.54-108.93-3.06c-7.78-15.6,28.37-39.53,80.75-53.44
	c52.38-13.91,101.15-12.54,108.93,3.06S378.52,372.96,326.14,386.87z"/>
<g>
	<g>
		<g>
			<path class="st0" d="M284.07,254.46c-52.5,14.19-84.94,72.19-67.65,127.13L407.49,335C397.15,276.4,338.28,239.81,284.07,254.46z
				"/>
		</g>
	</g>
</g>
</svg>
