<?xml version="1.0" encoding="utf-8"?>
<!-- Generator: Adobe Illustrator 27.0.0, SVG Export Plug-In . SVG Version: 6.00 Build 0)  -->
<svg version="1.1" id="图层_1" xmlns="http://www.w3.org/2000/svg" xmlns:xlink="http://www.w3.org/1999/xlink" x="0px" y="0px"
	 viewBox="0 0 613 571" style="enable-background:new 0 0 613 571;" xml:space="preserve">
<style type="text/css">
	.st0{fill:none;stroke:#10FD8B;stroke-width:5;}
	.st1{fill:#FFFFFF;}
</style>
<path class="st0" d="M253,304.4h19.2c0,0,4,0.3,7.4-3.5c3.2-3.6,2.1-8.4,7.7-8.9c5,0,4.2,4.2,7.5,5.9c2.2,1.6,5.5,0,9.8,3
	c8.2,5.8,5.8,19.5,1.5,25.7c-3.3,4-7.8,4.4-10.3,4.4H253"/>
<path class="st0" d="M375,304.4h-19.2c0,0-4,0.3-7.4-3.5c-3.2-3.6-2.1-8.4-7.7-8.9c-5,0-4.2,4.2-7.5,5.9c-2.2,1.6-5.5,0-9.8,3
	c-8.2,5.8-5.8,19.5-1.5,25.7c3.3,4,7.8,4.4,10.3,4.4H375"/>
<path class="st1" d="M313,269c0-1.7,1.3-3,3-3s3,1.3,3,3v10c0,1.7-1.3,3-3,3s-3-1.3-3-3V269z"/>
<path class="st1" d="M291.9,278.3c-1.1-1.3-0.9-3.2,0.4-4.2c1.3-1.1,3.2-0.9,4.2,0.4l6.4,7.7c1.1,1.3,0.9,3.2-0.4,4.2
	c-1.3,1.1-3.2,0.9-4.2-0.4L291.9,278.3z"/>
<path class="st1" d="M335.1,274.3c1.1-1.3,3-1.4,4.2-0.4c1.3,1.1,1.4,3,0.4,4.2l-6.4,7.7c-1.1,1.3-3,1.4-4.2,0.4
	c-1.3-1.1-1.4-3-0.4-4.2L335.1,274.3z"/>
</svg>
